<mxfile host="app.diagrams.net" agent="Mozilla/5.0 (Windows NT 10.0; Win64; x64) AppleWebKit/537.36 (KHTML, like Gecko) Chrome/132.0.0.0 Safari/537.36 OPR/117.0.0.0" version="26.2.14">
  <diagram name="Página-1" id="6BGyB2BOQ35ZIecX9_-6">
    <mxGraphModel>
      <root>
        <mxCell id="0" />
        <mxCell id="1" parent="0" />
        <mxCell id="2" value="Paciente" style="swimlane;fontStyle=1;align=center;verticalAlign=top;childLayout=stackLayout;horizontal=1;startSize=33.142857142857146;horizontalStack=0;resizeParent=1;resizeParentMax=0;resizeLast=0;collapsible=0;marginBottom=0;" vertex="1" parent="1">
          <mxGeometry x="407" y="8" width="268" height="240" as="geometry" />
        </mxCell>
        <mxCell id="3" value="+String nombre" style="text;strokeColor=none;fillColor=none;align=left;verticalAlign=top;spacingLeft=4;spacingRight=4;overflow=hidden;rotatable=0;points=[[0,0.5],[1,0.5]];portConstraint=eastwest;" vertex="1" parent="2">
          <mxGeometry y="33" width="268" height="33" as="geometry" />
        </mxCell>
        <mxCell id="4" value="+String apellido" style="text;strokeColor=none;fillColor=none;align=left;verticalAlign=top;spacingLeft=4;spacingRight=4;overflow=hidden;rotatable=0;points=[[0,0.5],[1,0.5]];portConstraint=eastwest;" vertex="1" parent="2">
          <mxGeometry y="66" width="268" height="33" as="geometry" />
        </mxCell>
        <mxCell id="5" value="+String dni" style="text;strokeColor=none;fillColor=none;align=left;verticalAlign=top;spacingLeft=4;spacingRight=4;overflow=hidden;rotatable=0;points=[[0,0.5],[1,0.5]];portConstraint=eastwest;" vertex="1" parent="2">
          <mxGeometry y="99" width="268" height="33" as="geometry" />
        </mxCell>
        <mxCell id="6" value="+String fechaNacimiento" style="text;strokeColor=none;fillColor=none;align=left;verticalAlign=top;spacingLeft=4;spacingRight=4;overflow=hidden;rotatable=0;points=[[0,0.5],[1,0.5]];portConstraint=eastwest;" vertex="1" parent="2">
          <mxGeometry y="133" width="268" height="33" as="geometry" />
        </mxCell>
        <mxCell id="7" style="line;strokeWidth=1;fillColor=none;align=left;verticalAlign=middle;spacingTop=-1;spacingLeft=3;spacingRight=3;rotatable=0;labelPosition=right;points=[];portConstraint=eastwest;strokeColor=inherit;" vertex="1" parent="2">
          <mxGeometry y="166" width="268" height="8" as="geometry" />
        </mxCell>
        <mxCell id="8" value="+void actualizarInformacion()" style="text;strokeColor=none;fillColor=none;align=left;verticalAlign=top;spacingLeft=4;spacingRight=4;overflow=hidden;rotatable=0;points=[[0,0.5],[1,0.5]];portConstraint=eastwest;" vertex="1" parent="2">
          <mxGeometry y="174" width="268" height="33" as="geometry" />
        </mxCell>
        <mxCell id="9" value="+String obtenerInformacion()" style="text;strokeColor=none;fillColor=none;align=left;verticalAlign=top;spacingLeft=4;spacingRight=4;overflow=hidden;rotatable=0;points=[[0,0.5],[1,0.5]];portConstraint=eastwest;" vertex="1" parent="2">
          <mxGeometry y="207" width="268" height="33" as="geometry" />
        </mxCell>
        <mxCell id="10" value="CalculadoraMedica" style="swimlane;fontStyle=1;align=center;verticalAlign=top;childLayout=stackLayout;horizontal=1;startSize=40.57142857142857;horizontalStack=0;resizeParent=1;resizeParentMax=0;resizeLast=0;collapsible=0;marginBottom=0;" vertex="1" parent="1">
          <mxGeometry x="566" y="360" width="508" height="150" as="geometry" />
        </mxCell>
        <mxCell id="11" style="line;strokeWidth=1;fillColor=none;align=left;verticalAlign=middle;spacingTop=-1;spacingLeft=3;spacingRight=3;rotatable=0;labelPosition=right;points=[];portConstraint=eastwest;strokeColor=inherit;" vertex="1" parent="10">
          <mxGeometry y="61" width="508" height="8" as="geometry" />
        </mxCell>
        <mxCell id="12" value="+double calcularBMI(double peso, double altura)" style="text;strokeColor=none;fillColor=none;align=left;verticalAlign=top;spacingLeft=4;spacingRight=4;overflow=hidden;rotatable=0;points=[[0,0.5],[1,0.5]];portConstraint=eastwest;" vertex="1" parent="10">
          <mxGeometry y="69" width="508" height="41" as="geometry" />
        </mxCell>
        <mxCell id="13" value="+double calcularDosis(double peso, double medicamento)" style="text;strokeColor=none;fillColor=none;align=left;verticalAlign=top;spacingLeft=4;spacingRight=4;overflow=hidden;rotatable=0;points=[[0,0.5],[1,0.5]];portConstraint=eastwest;" vertex="1" parent="10">
          <mxGeometry y="109" width="508" height="41" as="geometry" />
        </mxCell>
        <mxCell id="14" value="Recepcionista" style="swimlane;fontStyle=1;align=center;verticalAlign=top;childLayout=stackLayout;horizontal=1;startSize=36.8;horizontalStack=0;resizeParent=1;resizeParentMax=0;resizeLast=0;collapsible=0;marginBottom=0;" vertex="1" parent="1">
          <mxGeometry x="8" y="339" width="508" height="192" as="geometry" />
        </mxCell>
        <mxCell id="15" value="+String nombre" style="text;strokeColor=none;fillColor=none;align=left;verticalAlign=top;spacingLeft=4;spacingRight=4;overflow=hidden;rotatable=0;points=[[0,0.5],[1,0.5]];portConstraint=eastwest;" vertex="1" parent="14">
          <mxGeometry y="37" width="508" height="37" as="geometry" />
        </mxCell>
        <mxCell id="16" value="+String apellido" style="text;strokeColor=none;fillColor=none;align=left;verticalAlign=top;spacingLeft=4;spacingRight=4;overflow=hidden;rotatable=0;points=[[0,0.5],[1,0.5]];portConstraint=eastwest;" vertex="1" parent="14">
          <mxGeometry y="74" width="508" height="37" as="geometry" />
        </mxCell>
        <mxCell id="17" style="line;strokeWidth=1;fillColor=none;align=left;verticalAlign=middle;spacingTop=-1;spacingLeft=3;spacingRight=3;rotatable=0;labelPosition=right;points=[];portConstraint=eastwest;strokeColor=inherit;" vertex="1" parent="14">
          <mxGeometry y="110" width="508" height="8" as="geometry" />
        </mxCell>
        <mxCell id="18" value="+void gestionarTurno(Paciente paciente, String fechaHora)" style="text;strokeColor=none;fillColor=none;align=left;verticalAlign=top;spacingLeft=4;spacingRight=4;overflow=hidden;rotatable=0;points=[[0,0.5],[1,0.5]];portConstraint=eastwest;" vertex="1" parent="14">
          <mxGeometry y="118" width="508" height="37" as="geometry" />
        </mxCell>
        <mxCell id="19" value="+void enviarNotificacion(Paciente paciente, String mensaje)" style="text;strokeColor=none;fillColor=none;align=left;verticalAlign=top;spacingLeft=4;spacingRight=4;overflow=hidden;rotatable=0;points=[[0,0.5],[1,0.5]];portConstraint=eastwest;" vertex="1" parent="14">
          <mxGeometry y="155" width="508" height="37" as="geometry" />
        </mxCell>
        <mxCell id="20" value="&quot;Solicita turno&quot;" style="curved=1;startArrow=none;endArrow=open;endSize=12;exitX=0;exitY=0.75;entryX=0.38;entryY=0;" edge="1" parent="1" source="2" target="14">
          <mxGeometry relative="1" as="geometry">
            <Array as="points">
              <mxPoint x="172" y="293" />
            </Array>
          </mxGeometry>
        </mxCell>
        <mxCell id="21" value="&quot;Confirma turno&quot;" style="curved=1;startArrow=none;endArrow=open;endSize=12;exitX=0.75;exitY=0;entryX=0.26;entryY=1;" edge="1" parent="1" source="14" target="2">
          <mxGeometry relative="1" as="geometry">
            <Array as="points">
              <mxPoint x="452" y="293" />
            </Array>
          </mxGeometry>
        </mxCell>
        <mxCell id="22" value="&quot;Consulta información médica&quot;" style="curved=1;startArrow=none;endArrow=open;endSize=12;exitX=0.74;exitY=1;entryX=0.3;entryY=0;" edge="1" parent="1" source="2" target="10">
          <mxGeometry relative="1" as="geometry">
            <Array as="points">
              <mxPoint x="630" y="293" />
            </Array>
          </mxGeometry>
        </mxCell>
        <mxCell id="23" value="&quot;Devuelve resultados&quot;" style="curved=1;startArrow=none;endArrow=open;endSize=12;exitX=0.59;exitY=0;entryX=1;entryY=0.75;" edge="1" parent="1" source="10" target="2">
          <mxGeometry relative="1" as="geometry">
            <Array as="points">
              <mxPoint x="910" y="293" />
            </Array>
          </mxGeometry>
        </mxCell>
      </root>
    </mxGraphModel>
  </diagram>
</mxfile>
